<svg width="3350" height="480" viewBox="0 0 3350 480" fill="none" xmlns="http://www.w3.org/2000/svg">
<g clip-path="url(#clip0_1_183)">
<rect width="3350" height="480" rx="50" fill="white"/>
<rect width="619" height="481" transform="translate(0 -1)" fill="#FDE037"/>
<path fill-rule="evenodd" clip-rule="evenodd" d="M179.794 151.418C166.189 155.533 152.769 165.112 145.855 175.641C142.509 180.739 120.022 235.331 95.8842 296.956L52 409L70.3776 408.921C103.959 408.778 128.685 391.606 144.913 357.158L153.335 339.281L214.393 338.305L275.451 337.329L299.005 276.63L322.556 215.932H290.737C272.478 215.932 258.915 214.448 258.915 212.449C258.915 210.533 263.751 196.818 269.662 181.966C275.573 167.114 280.409 153.399 280.409 151.482C280.409 147.321 193.519 147.267 179.794 151.418ZM296.659 151.364C295.513 153.216 290.598 165.283 285.733 178.179L276.888 201.63H309.101C326.815 201.63 341.303 202.839 341.292 204.312C341.285 205.785 330 235.653 316.215 270.681C302.434 305.708 291.156 335.069 291.156 335.931C291.156 339.996 321.471 336.839 331.637 331.712C352.598 321.143 358.781 311.879 379.426 260.133L399.914 208.781H422.87C442.448 208.781 449.125 206.94 468.248 196.267C489.957 184.15 491.874 183.753 528.833 183.753C560.373 183.753 567 182.82 567 178.39C567 173.971 560.509 173.027 530.087 173.027H493.174L481.023 160.514L468.871 148H383.808C334.503 148 297.866 149.416 296.659 151.364ZM251.75 213.84C251.75 214.655 246.774 228.331 240.688 244.23L229.629 273.137H204.864C191.247 273.137 180.095 271.929 180.085 270.455C180.074 268.982 185.089 255.303 191.233 240.065L202.403 212.356H227.075C240.648 212.356 251.75 213.025 251.75 213.84Z" fill="#373841"/>
<rect width="2731" height="481" transform="translate(619 -1)" fill="#373841"/>
<path d="M757.568 306.738V197.314C757.568 195.029 758.359 193.066 759.941 191.426C761.523 189.785 763.457 188.965 765.742 188.965H832.803C868.252 188.965 885.977 205.312 885.977 238.008C885.977 270.645 868.252 286.963 832.803 286.963H790.703V306.738C790.703 309.023 789.883 310.986 788.242 312.627C786.66 314.209 784.727 315 782.441 315H765.918C763.633 315 761.67 314.209 760.029 312.627C758.389 310.986 757.568 309.023 757.568 306.738ZM790.703 262.09H822.783C832.627 262.09 840.098 260.449 845.195 257.168C850.293 253.828 852.842 247.441 852.842 238.008C852.842 228.516 850.293 222.129 845.195 218.848C840.098 215.508 832.627 213.838 822.783 213.838H790.703V262.09ZM1014.92 301.992C1002.96 312.48 985.384 317.725 962.181 317.725C939.037 317.725 921.459 312.48 909.447 301.992C897.435 291.445 891.429 274.775 891.429 251.982C891.429 229.189 897.435 212.549 909.447 202.061C921.459 191.572 939.037 186.328 962.181 186.328C985.384 186.328 1002.96 191.572 1014.92 202.061C1026.93 212.549 1032.93 229.189 1032.93 251.982C1032.93 274.775 1026.93 291.445 1014.92 301.992ZM990.921 220.605C985.004 213.574 975.423 210.059 962.181 210.059C948.998 210.059 939.418 213.574 933.441 220.605C927.523 227.637 924.564 238.125 924.564 252.07C924.564 265.957 927.523 276.416 933.441 283.447C939.418 290.42 948.998 293.906 962.181 293.906C975.423 293.906 985.004 290.42 990.921 283.447C996.839 276.416 999.798 265.957 999.798 252.07C999.798 238.125 996.839 227.637 990.921 220.605ZM1178.31 311.221C1178.31 313.74 1176.81 315 1173.83 315H1152.73C1150.51 315 1148.04 314.209 1145.35 312.627C1142.71 310.986 1140.69 309.023 1139.28 306.738L1124.34 283.359C1118.19 273.75 1110.75 268.945 1102.02 268.945H1080.57V306.738C1080.57 309.023 1079.75 310.986 1078.11 312.627C1076.53 314.209 1074.6 315 1072.31 315H1055.79C1053.5 315 1051.54 314.209 1049.9 312.627C1048.26 310.986 1047.44 309.023 1047.44 306.738V197.314C1047.44 195.029 1048.23 193.066 1049.81 191.426C1051.39 189.785 1053.33 188.965 1055.61 188.965H1128.12C1141.54 188.965 1152.53 192.568 1161.08 199.775C1169.69 206.982 1174 216.709 1174 228.955C1174 246.006 1162.96 256.699 1140.87 261.035C1144.38 262.324 1147.63 264.551 1150.62 267.715C1153.61 270.82 1157.04 275.361 1160.91 281.338L1176.9 306.738C1177.84 308.379 1178.31 309.873 1178.31 311.221ZM1080.57 244.072H1118.01C1124.05 244.072 1129.35 242.871 1133.92 240.469C1138.55 238.066 1140.87 234.229 1140.87 228.955C1140.87 223.682 1138.55 219.844 1133.92 217.441C1129.35 215.039 1124.05 213.838 1118.01 213.838H1080.57V244.072ZM1177.7 205.576V197.314C1177.7 194.912 1178.49 192.92 1180.07 191.338C1181.65 189.756 1183.64 188.965 1186.05 188.965H1297.58C1299.98 188.965 1301.97 189.756 1303.56 191.338C1305.14 192.92 1305.93 194.912 1305.93 197.314V205.576C1305.93 207.979 1305.14 209.971 1303.56 211.553C1301.97 213.076 1299.98 213.838 1297.58 213.838H1258.38V306.914C1258.38 309.199 1257.56 311.133 1255.92 312.715C1254.34 314.238 1252.4 315 1250.12 315H1233.51C1231.22 315 1229.26 314.238 1227.62 312.715C1226.04 311.133 1225.24 309.199 1225.24 306.914V213.838H1186.05C1183.64 213.838 1181.65 213.076 1180.07 211.553C1178.49 209.971 1177.7 207.979 1177.7 205.576ZM1299.34 306.914L1321.4 223.242C1327.38 200.449 1346.83 189.023 1379.76 188.965H1427.13C1429.3 188.965 1431.09 189.785 1432.49 191.426C1433.96 193.066 1434.69 194.971 1434.69 197.139V306.914C1434.69 309.199 1433.87 311.133 1432.23 312.715C1430.59 314.238 1428.63 315 1426.34 315H1409.82C1407.42 315 1405.42 314.238 1403.84 312.715C1402.32 311.133 1401.56 309.141 1401.56 306.738V284.59H1339.07L1333.18 306.738C1332.59 309.141 1331.27 311.133 1329.22 312.715C1327.17 314.238 1325 315 1322.72 315H1305.4C1303.12 315 1301.48 314.355 1300.48 313.066C1299.49 311.719 1298.99 310.547 1298.99 309.551C1299.05 308.555 1299.16 307.676 1299.34 306.914ZM1345.57 259.717H1401.56V213.838H1376.51C1370.88 213.838 1365.96 215.449 1361.74 218.672C1357.58 221.836 1354.77 226.113 1353.31 231.504L1345.57 259.717ZM1456.23 306.914V197.49C1456.23 195.088 1457.05 193.066 1458.69 191.426C1460.33 189.785 1462.29 188.965 1464.58 188.965H1481.1C1483.39 188.965 1485.32 189.785 1486.9 191.426C1488.54 193.066 1489.36 195.088 1489.36 197.49V290.127H1565.92C1568.2 290.127 1570.13 290.947 1571.72 292.588C1573.36 294.229 1574.18 296.191 1574.18 298.477V306.738C1574.18 309.023 1573.36 310.986 1571.72 312.627C1570.13 314.209 1568.2 315 1565.92 315H1464.58C1462.29 315 1460.33 314.238 1458.69 312.715C1457.05 311.133 1456.23 309.199 1456.23 306.914ZM1584.99 306.562V197.139C1584.99 194.854 1585.81 192.92 1587.45 191.338C1589.09 189.756 1591.06 188.965 1593.34 188.965H1694.68C1696.96 188.965 1698.9 189.785 1700.48 191.426C1702.12 193.066 1702.94 195.029 1702.94 197.314V205.576C1702.94 207.861 1702.12 209.824 1700.48 211.465C1698.9 213.047 1696.96 213.838 1694.68 213.838H1618.13V244.775H1680.44C1682.73 244.775 1684.66 245.596 1686.24 247.236C1687.88 248.877 1688.7 250.811 1688.7 253.037V261.387C1688.7 263.672 1687.88 265.635 1686.24 267.275C1684.66 268.857 1682.73 269.648 1680.44 269.648H1618.13V306.562C1618.13 308.965 1617.31 310.986 1615.67 312.627C1614.08 314.209 1612.15 315 1609.86 315H1593.34C1591.06 315 1589.09 314.209 1587.45 312.627C1585.81 310.986 1584.99 308.965 1584.99 306.562ZM1713.76 306.562V197.139C1713.76 194.854 1714.58 192.92 1716.22 191.338C1717.86 189.756 1719.82 188.965 1722.1 188.965H1823.44C1825.73 188.965 1827.66 189.785 1829.24 191.426C1830.88 193.066 1831.7 195.029 1831.7 197.314V205.576C1831.7 207.861 1830.88 209.824 1829.24 211.465C1827.66 213.047 1825.73 213.838 1823.44 213.838H1746.89V239.414H1812.81C1815.09 239.414 1817.03 240.234 1818.61 241.875C1820.25 243.457 1821.07 245.391 1821.07 247.676V255.938C1821.07 258.223 1820.25 260.186 1818.61 261.826C1817.03 263.408 1815.09 264.199 1812.81 264.199H1746.89V290.127H1823.27C1825.49 290.127 1827.4 290.918 1828.98 292.5C1830.56 294.082 1831.35 296.016 1831.35 298.301V306.738C1831.35 309.023 1830.53 310.986 1828.89 312.627C1827.25 314.209 1825.29 315 1823 315H1722.1C1719.82 315 1717.86 314.209 1716.22 312.627C1714.58 310.986 1713.76 308.965 1713.76 306.562ZM1975.15 311.221C1975.15 313.74 1973.65 315 1970.66 315H1949.57C1947.34 315 1944.88 314.209 1942.19 312.627C1939.55 310.986 1937.53 309.023 1936.12 306.738L1921.18 283.359C1915.03 273.75 1907.59 268.945 1898.86 268.945H1877.41V306.738C1877.41 309.023 1876.59 310.986 1874.95 312.627C1873.37 314.209 1871.43 315 1869.15 315H1852.63C1850.34 315 1848.38 314.209 1846.74 312.627C1845.1 310.986 1844.28 309.023 1844.28 306.738V197.314C1844.28 195.029 1845.07 193.066 1846.65 191.426C1848.23 189.785 1850.16 188.965 1852.45 188.965H1924.96C1938.38 188.965 1949.36 192.568 1957.92 199.775C1966.53 206.982 1970.84 216.709 1970.84 228.955C1970.84 246.006 1959.79 256.699 1937.7 261.035C1941.22 262.324 1944.47 264.551 1947.46 267.715C1950.45 270.82 1953.88 275.361 1957.74 281.338L1973.74 306.738C1974.68 308.379 1975.15 309.873 1975.15 311.221ZM1877.41 244.072H1914.85C1920.89 244.072 1926.19 242.871 1930.76 240.469C1935.39 238.066 1937.7 234.229 1937.7 228.955C1937.7 223.682 1935.39 219.844 1930.76 217.441C1926.19 215.039 1920.89 213.838 1914.85 213.838H1877.41V244.072ZM2117.09 311.221C2117.09 313.74 2115.6 315 2112.61 315H2091.52C2089.29 315 2086.83 314.209 2084.13 312.627C2081.5 310.986 2079.47 309.023 2078.07 306.738L2063.13 283.359C2056.97 273.75 2049.53 268.945 2040.8 268.945H2019.36V306.738C2019.36 309.023 2018.54 310.986 2016.9 312.627C2015.31 314.209 2013.38 315 2011.1 315H1994.57C1992.29 315 1990.32 314.209 1988.68 312.627C1987.04 310.986 1986.22 309.023 1986.22 306.738V197.314C1986.22 195.029 1987.01 193.066 1988.6 191.426C1990.18 189.785 1992.11 188.965 1994.4 188.965H2066.91C2080.32 188.965 2091.31 192.568 2099.87 199.775C2108.48 206.982 2112.79 216.709 2112.79 228.955C2112.79 246.006 2101.74 256.699 2079.65 261.035C2083.17 262.324 2086.42 264.551 2089.41 267.715C2092.39 270.82 2095.82 275.361 2099.69 281.338L2115.69 306.738C2116.62 308.379 2117.09 309.873 2117.09 311.221ZM2019.36 244.072H2056.8C2062.83 244.072 2068.14 242.871 2072.71 240.469C2077.34 238.066 2079.65 234.229 2079.65 228.955C2079.65 223.682 2077.34 219.844 2072.71 217.441C2068.14 215.039 2062.83 213.838 2056.8 213.838H2019.36V244.072ZM2117.8 306.914L2139.86 223.242C2145.84 200.449 2165.29 189.023 2198.22 188.965H2245.59C2247.76 188.965 2249.55 189.785 2250.95 191.426C2252.42 193.066 2253.15 194.971 2253.15 197.139V306.914C2253.15 309.199 2252.33 311.133 2250.69 312.715C2249.05 314.238 2247.09 315 2244.8 315H2228.28C2225.88 315 2223.88 314.238 2222.3 312.715C2220.78 311.133 2220.02 309.141 2220.02 306.738V284.59H2157.53L2151.64 306.738C2151.05 309.141 2149.73 311.133 2147.68 312.715C2145.63 314.238 2143.46 315 2141.18 315H2123.86C2121.58 315 2119.94 314.355 2118.94 313.066C2117.95 311.719 2117.45 310.547 2117.45 309.551C2117.51 308.555 2117.62 307.676 2117.8 306.914ZM2164.03 259.717H2220.02V213.838H2194.97C2189.34 213.838 2184.42 215.449 2180.2 218.672C2176.04 221.836 2173.23 226.113 2171.76 231.504L2164.03 259.717ZM2327.86 315.703C2308.41 315.703 2293.47 310.459 2283.04 299.971C2272.67 289.482 2267.48 273.457 2267.48 251.895C2267.48 230.273 2272.9 214.277 2283.74 203.906C2294.64 193.477 2310.96 188.262 2332.69 188.262H2352.29C2365.24 188.262 2376.9 191.367 2387.28 197.578C2397.7 203.73 2402.92 211.436 2402.92 220.693C2402.92 224.15 2401.89 226.641 2399.84 228.164C2397.79 229.629 2395.8 230.361 2393.87 230.361H2383.41C2378.37 230.361 2374.36 227.49 2371.37 221.748C2368.38 216.006 2361 213.135 2349.22 213.135H2333.57C2320.74 213.135 2312.04 215.889 2307.47 221.396C2302.9 226.904 2300.61 237.041 2300.61 251.807C2300.61 266.572 2302.67 276.797 2306.77 282.48C2310.87 288.105 2318.19 290.918 2328.74 290.918H2346.76C2356.19 290.918 2362.93 289.131 2366.97 285.557C2371.02 281.924 2373.1 276.738 2373.21 270H2353.35C2351.06 270 2349.1 269.209 2347.46 267.627C2345.88 265.986 2345.09 264.023 2345.09 261.738V254.883C2345.09 252.598 2345.88 250.664 2347.46 249.082C2349.1 247.441 2351.06 246.621 2353.35 246.621H2397.47C2399.76 246.621 2401.69 247.441 2403.27 249.082C2404.91 250.664 2405.73 252.598 2405.73 254.883V264.639C2405.73 281.045 2400.81 293.672 2390.97 302.52C2381.12 311.309 2366.68 315.703 2347.64 315.703H2327.86ZM2420.15 306.562V197.139C2420.15 194.854 2420.97 192.92 2422.61 191.338C2424.25 189.756 2426.21 188.965 2428.5 188.965H2529.84C2532.12 188.965 2534.06 189.785 2535.64 191.426C2537.28 193.066 2538.1 195.029 2538.1 197.314V205.576C2538.1 207.861 2537.28 209.824 2535.64 211.465C2534.06 213.047 2532.12 213.838 2529.84 213.838H2453.28V239.414H2519.2C2521.49 239.414 2523.42 240.234 2525 241.875C2526.64 243.457 2527.46 245.391 2527.46 247.676V255.938C2527.46 258.223 2526.64 260.186 2525 261.826C2523.42 263.408 2521.49 264.199 2519.2 264.199H2453.28V290.127H2529.66C2531.89 290.127 2533.79 290.918 2535.37 292.5C2536.96 294.082 2537.75 296.016 2537.75 298.301V306.738C2537.75 309.023 2536.93 310.986 2535.29 312.627C2533.65 314.209 2531.68 315 2529.4 315H2428.5C2426.21 315 2424.25 314.209 2422.61 312.627C2420.97 310.986 2420.15 308.965 2420.15 306.562ZM2550.67 306.562V197.49C2550.67 195.088 2551.46 193.066 2553.04 191.426C2554.63 189.785 2556.56 188.965 2558.84 188.965H2594.62C2596.9 188.965 2599.07 189.785 2601.12 191.426C2603.17 193.066 2604.55 195.029 2605.25 197.314L2631.18 272.373L2657.11 197.314C2657.81 195.029 2659.19 193.066 2661.24 191.426C2663.29 189.785 2665.46 188.965 2667.74 188.965H2703.51C2705.8 188.965 2707.7 189.785 2709.23 191.426C2710.81 193.066 2711.6 195.088 2711.6 197.49V306.562C2711.6 308.965 2710.78 310.986 2709.14 312.627C2707.56 314.209 2705.62 315 2703.34 315H2687.52C2685.23 315 2683.27 314.209 2681.63 312.627C2680.05 310.986 2679.25 308.965 2679.25 306.562V220.693L2648.23 307.09C2647.41 309.258 2645.97 311.133 2643.92 312.715C2641.87 314.238 2639.7 315 2637.42 315H2624.85C2622.57 315 2620.4 314.238 2618.35 312.715C2616.35 311.133 2614.92 309.258 2614.04 307.09L2583.1 220.693V306.562C2583.1 308.965 2582.28 310.986 2580.64 312.627C2579.06 314.209 2577.13 315 2574.84 315H2559.02C2556.74 315 2554.77 314.209 2553.13 312.627C2551.49 310.986 2550.67 308.965 2550.67 306.562ZM2750.54 286.523C2758.45 286.523 2762.4 290.508 2762.4 298.477V304.014C2762.4 307.705 2761.38 310.605 2759.33 312.715C2757.33 314.824 2754.4 315.879 2750.54 315.879H2739.73C2735.86 315.879 2732.9 314.824 2730.85 312.715C2728.86 310.605 2727.86 307.705 2727.86 304.014V298.477C2727.86 294.609 2728.89 291.65 2730.94 289.6C2732.99 287.549 2735.92 286.523 2739.73 286.523H2750.54ZM2771.46 245.303C2771.46 226.377 2786.72 216.914 2817.25 216.914C2849.36 216.914 2865.41 225.322 2865.41 242.139C2865.41 243.662 2864.92 244.951 2863.92 246.006C2862.92 247.002 2861.63 247.5 2860.05 247.5H2846.96C2842.74 247.5 2839.19 245.742 2836.32 242.227C2833.45 238.652 2827.8 236.865 2819.36 236.865C2807.76 236.865 2801.96 239.678 2801.96 245.303C2801.96 247.939 2804.21 250.137 2808.72 251.895C2813.29 253.652 2818.83 255.205 2825.34 256.553C2831.9 257.842 2838.43 259.512 2844.94 261.562C2851.44 263.613 2856.95 266.895 2861.46 271.406C2866.03 275.859 2868.31 281.514 2868.31 288.369C2868.31 307.295 2852.2 316.758 2819.97 316.758C2787.75 316.758 2771.63 308.379 2771.63 291.621C2771.63 290.039 2772.13 288.75 2773.13 287.754C2774.18 286.699 2775.5 286.172 2777.08 286.172H2790.18C2794.4 286.172 2797.94 287.959 2800.81 291.533C2803.69 295.049 2809.34 296.807 2817.78 296.807C2831.2 296.807 2837.9 293.994 2837.9 288.369C2837.9 285.732 2835.62 283.535 2831.05 281.777C2826.54 280.02 2821 278.467 2814.44 277.119C2807.88 275.713 2801.34 274.014 2794.84 272.021C2788.39 269.971 2782.88 266.689 2778.31 262.178C2773.74 257.666 2771.46 252.041 2771.46 245.303ZM2881.06 309.639V194.414C2881.06 192.832 2881.56 191.543 2882.56 190.547C2883.61 189.492 2884.9 188.965 2886.42 188.965H2906.11C2907.63 188.965 2908.89 189.492 2909.89 190.547C2910.94 191.543 2911.47 192.832 2911.47 194.414V229.658C2921.55 221.162 2932.27 216.914 2943.64 216.914C2955.07 216.914 2964.35 220.4 2971.5 227.373C2978.65 234.287 2982.22 244.893 2982.22 259.189V309.639C2982.22 311.162 2981.7 312.451 2980.64 313.506C2979.65 314.502 2978.36 315 2976.77 315H2957.18C2955.65 315 2954.36 314.502 2953.31 313.506C2952.31 312.451 2951.81 311.162 2951.81 309.639V259.189C2951.81 245.186 2946.22 238.184 2935.03 238.184C2927.7 238.184 2919.85 242.373 2911.47 250.752V309.639C2911.47 311.162 2910.94 312.451 2909.89 313.506C2908.89 314.502 2907.63 315 2906.11 315H2886.42C2884.9 315 2883.61 314.502 2882.56 313.506C2881.56 312.451 2881.06 311.162 2881.06 309.639ZM3008.59 304.102C2999.45 295.664 2994.88 283.242 2994.88 266.836C2994.88 250.371 2999.45 237.949 3008.59 229.57C3017.74 221.133 3030.86 216.914 3047.97 216.914C3065.14 216.914 3078.29 221.133 3087.43 229.57C3096.57 237.949 3101.14 250.371 3101.14 266.836C3101.14 283.242 3096.57 295.664 3087.43 304.102C3078.29 312.539 3065.14 316.758 3047.97 316.758C3030.86 316.758 3017.74 312.539 3008.59 304.102ZM3030.83 243.984C3027.2 248.73 3025.38 256.318 3025.38 266.748C3025.38 277.178 3027.2 284.795 3030.83 289.6C3034.46 294.404 3040.18 296.807 3047.97 296.807C3055.82 296.807 3061.56 294.404 3065.2 289.6C3068.89 284.795 3070.73 277.178 3070.73 266.748C3070.73 256.318 3068.89 248.73 3065.2 243.984C3061.56 239.238 3055.82 236.865 3047.97 236.865C3040.18 236.865 3034.46 239.238 3030.83 243.984ZM3113.8 339.258V224.121C3113.8 222.539 3114.3 221.25 3115.3 220.254C3116.35 219.199 3117.64 218.672 3119.16 218.672H3136.13C3137.65 218.672 3138.91 219.199 3139.91 220.254C3140.96 221.25 3141.49 222.539 3141.49 224.121V226.758C3150.75 220.195 3161.5 216.914 3173.74 216.914C3185.99 216.914 3196.22 221.25 3204.42 229.922C3212.62 238.535 3216.72 250.898 3216.72 267.012C3216.72 283.066 3212.48 295.371 3203.98 303.926C3195.48 312.48 3184.03 316.758 3169.61 316.758C3162.17 316.758 3153.71 315.264 3144.21 312.275V339.258C3144.21 340.84 3143.69 342.129 3142.63 343.125C3141.64 344.18 3140.38 344.707 3138.85 344.707H3119.16C3117.64 344.707 3116.35 344.18 3115.3 343.125C3114.3 342.129 3113.8 340.84 3113.8 339.258ZM3144.21 291.973C3151.77 294.375 3158.13 295.576 3163.29 295.576C3171.31 295.576 3177 293.291 3180.34 288.721C3183.74 284.15 3185.43 276.855 3185.43 266.836C3185.43 256.816 3183.82 249.551 3180.6 245.039C3177.44 240.469 3172.66 238.184 3166.27 238.184C3159.95 238.184 3152.59 240.82 3144.21 246.094V291.973Z" fill="url(#paint0_linear_1_183)"/>
<path d="M0 525.5V265.25V5C0 2.23858 2.23858 0 5.00001 0H702.333C705.095 0 707.333 2.23856 707.333 4.99999V525.5C707.333 528.261 705.095 530.5 702.333 530.5H5C2.23858 530.5 0 528.261 0 525.5Z" fill="#FDE037"/>
<path d="M527.44 238.288L514.916 252.392L502.308 266.499L500.457 239.628L457.2 241.777L429.323 216.457L454.969 188.22L456.309 215.202L499.567 213.053L527.44 238.288Z" fill="#373841"/>
<path fill-rule="evenodd" clip-rule="evenodd" d="M224.817 110.737C208.277 115.74 191.964 127.385 183.56 140.186C179.492 146.384 152.157 212.752 122.815 287.67L69.469 423.883L91.809 423.787C132.631 423.613 162.687 402.737 182.414 360.857L192.652 339.124L266.875 337.938L341.098 336.751L369.73 262.959L398.358 189.167H359.679C337.483 189.167 320.996 187.363 320.996 184.934C320.996 182.604 326.875 165.93 334.06 147.875C341.246 129.819 347.125 113.145 347.125 110.816C347.125 105.756 241.5 105.691 224.817 110.737ZM366.878 110.672C365.484 112.924 359.509 127.593 353.596 143.272L342.844 171.781H382.002C403.536 171.781 421.147 173.25 421.134 175.041C421.125 176.832 407.408 213.143 390.65 255.726C373.898 298.31 360.189 334.004 360.189 335.052C360.189 339.994 397.039 336.156 409.398 329.923C434.877 317.074 442.394 305.812 467.49 242.904L492.395 180.474H520.301C544.099 180.474 552.217 178.236 575.462 165.261C601.852 150.53 577.37 154.164 622.298 154.164C610.984 137.887 611.287 149.149 611.287 143.764C605.033 142.132 612.782 144.938 612.782 139.413L607.412 130.033L590.992 121.795L576.22 106.582H472.816C412.882 106.582 368.345 108.303 366.878 110.672ZM312.286 186.624C312.286 187.615 306.238 204.241 298.839 223.57L285.396 258.713H255.291C238.739 258.713 225.182 257.243 225.169 255.453C225.156 253.662 231.253 237.032 238.721 218.507L252.3 184.821H282.291C298.791 184.821 312.286 185.633 312.286 186.624Z" fill="#373841"/>
<path d="M688.521 129.83L692.013 135.622C693.929 138.828 695.506 141.696 695.506 141.977C695.506 142.258 694.098 145.07 689.028 153.786L684.071 153.786C680.184 153.786 678.944 153.617 678.606 152.942C678.381 152.493 675.508 147.488 672.241 141.808C668.917 136.185 666.27 131.18 666.27 130.73C666.27 129.999 667.903 129.886 688.521 129.83Z" fill="#373841"/>
<path d="M657.313 131.686C657.933 132.698 660.975 137.815 664.016 143.101C667.115 148.331 669.65 152.999 669.65 153.336C669.65 153.73 669.199 154.123 668.692 154.236C668.129 154.348 665.368 154.348 657.538 153.955L650.948 142.483C647.286 136.185 644.3 130.73 644.3 130.449C644.3 130.111 646.666 129.886 656.13 129.886L657.313 131.686Z" fill="#373841"/>
<path d="M640.245 139.559C643.23 144.845 646.272 150.075 646.948 151.199C647.624 152.324 648.187 153.392 648.187 153.617C648.244 153.842 645.765 154.067 642.779 154.18C639.738 154.292 636.865 154.18 636.414 154.011C635.963 153.842 634.048 151.031 632.189 147.825C630.386 144.62 627.57 139.84 625.936 137.197C624.359 134.554 622.894 131.855 622.725 131.123C622.331 129.886 622.387 129.886 634.724 129.886L640.245 139.559Z" fill="#373841"/>
<path d="M615.121 133.935C616.416 136.185 619.458 141.471 621.88 145.632C624.303 149.793 626.274 153.392 626.274 153.617C626.274 153.898 621.204 154.067 603.742 154.067L603.742 129.886L612.698 129.83L615.121 133.935Z" fill="#373841"/>
</g>
<rect x="2.5" y="2.5" width="3345" height="475" rx="47.5" stroke="#525460" stroke-width="5"/>
<defs>
<linearGradient id="paint0_linear_1_183" x1="745" y1="250.5" x2="3223" y2="250.5" gradientUnits="userSpaceOnUse">
<stop offset="0.22" stop-color="#FCD038" stop-opacity="0.8"/>
<stop offset="0.4425" stop-color="#E4B73A" stop-opacity="0.99"/>
<stop offset="0.875" stop-color="#D29B27"/>
</linearGradient>
<clipPath id="clip0_1_183">
<rect width="3350" height="480" rx="50" fill="white"/>
</clipPath>
</defs>
</svg>
