<svg width="5203" height="3903" viewBox="0 0 5203 3903" fill="none" xmlns="http://www.w3.org/2000/svg">
<path d="M0 3897.25V1951.12V5C0 2.23858 2.23869 0 5.00011 0H5198C5200.76 0 5203 2.23861 5203 5.00003V3897.25C5203 3900.01 5200.76 3902.25 5198 3902.25H5C2.23858 3902.25 0 3900.01 0 3897.25Z" fill="#FDE037"/>
<path d="M3865.56 1752.8L3773.44 1856.54L3680.69 1960.32L3667.08 1762.66L3348.89 1778.47L3143.83 1592.22L3332.48 1384.51L3342.34 1582.99L3660.53 1567.18L3865.56 1752.8Z" fill="#373841"/>
<path fill-rule="evenodd" clip-rule="evenodd" d="M1653.71 814.566C1532.04 851.366 1412.05 937.021 1350.23 1031.18C1320.31 1076.77 1119.24 1564.96 903.401 2116.04L511 3118L675.328 3117.3C975.604 3116.02 1196.69 2962.45 1341.8 2654.4L1417.11 2494.53L1963.08 2485.81L2509.04 2477.08L2719.66 1934.28L2930.24 1391.48H2645.73C2482.46 1391.48 2361.18 1378.21 2361.18 1360.34C2361.18 1343.2 2404.43 1220.55 2457.28 1087.74C2510.13 954.926 2553.38 832.279 2553.38 815.141C2553.38 777.925 1776.42 777.446 1653.71 814.566ZM2698.68 814.086C2688.43 830.648 2644.48 938.556 2600.98 1053.88L2521.89 1263.59H2809.93C2968.33 1263.59 3097.87 1274.4 3097.77 1287.57C3097.71 1300.74 2996.81 1567.84 2873.55 1881.08C2750.32 2194.31 2649.48 2456.87 2649.48 2464.58C2649.48 2500.93 2920.54 2472.7 3011.45 2426.85C3198.87 2332.34 3254.16 2249.5 3438.76 1786.76L3621.96 1327.53H3827.23C4002.28 1327.53 4061.99 1311.07 4232.98 1215.63C4427.1 1107.27 4247.02 1134 4577.5 1134C4494.28 1014.27 4496.5 1097.11 4496.5 1057.5C4450.5 1045.5 4507.5 1066.14 4507.5 1025.5L4468 956.5L4347.21 895.904L4238.56 784H3477.94C3037.07 784 2709.47 796.661 2698.68 814.086ZM2297.12 1372.78C2297.12 1380.07 2252.62 1502.36 2198.2 1644.54L2099.31 1903.04H1877.87C1756.11 1903.04 1656.4 1892.23 1656.3 1879.06C1656.2 1865.89 1701.05 1743.56 1755.99 1607.29L1855.86 1359.51H2076.47C2197.85 1359.51 2297.12 1365.49 2297.12 1372.78Z" fill="#373841"/>
<path d="M5064.62 955L5090.31 997.606C5104.4 1021.18 5116 1042.28 5116 1044.35C5116 1046.42 5105.64 1067.1 5068.35 1131.21L5031.88 1131.21C5003.29 1131.21 4994.18 1129.97 4991.69 1125.01C4990.03 1121.7 4968.9 1084.89 4944.87 1043.11C4920.42 1001.74 4900.94 964.928 4900.94 961.618C4900.94 956.241 4912.96 955.414 5064.62 955Z" fill="#373841"/>
<path d="M4835.06 968.65C4839.62 976.096 4861.99 1013.74 4884.37 1052.62C4907.16 1091.09 4925.81 1125.42 4925.81 1127.91C4925.81 1130.8 4922.49 1133.7 4918.76 1134.52C4914.62 1135.35 4894.31 1135.35 4836.72 1132.46L4788.24 1048.07C4761.3 1001.74 4739.34 961.618 4739.34 959.55C4739.34 957.068 4756.75 955.414 4826.36 955.414L4835.06 968.65Z" fill="#373841"/>
<path d="M4709.51 1026.56C4731.47 1065.44 4753.85 1103.91 4758.82 1112.19C4763.79 1120.46 4767.93 1128.32 4767.93 1129.97C4768.35 1131.63 4750.12 1133.28 4728.15 1134.11C4705.78 1134.94 4684.65 1134.11 4681.33 1132.87C4678.02 1131.63 4663.93 1110.95 4650.25 1087.37C4636.99 1063.79 4616.28 1028.63 4604.26 1009.19C4592.66 989.747 4581.88 969.891 4580.64 964.514C4577.74 955.414 4578.15 955.414 4668.9 955.414L4709.51 1026.56Z" fill="#373841"/>
<path d="M4524.7 985.196C4534.23 1001.74 4556.61 1040.63 4574.43 1071.24C4592.24 1101.85 4606.75 1128.32 4606.75 1129.97C4606.75 1132.04 4569.45 1133.28 4441 1133.28L4441 955.414L4506.88 955L4524.7 985.196Z" fill="#373841"/>
</svg>
