<svg width="619" height="480" viewBox="0 0 619 480" fill="none" xmlns="http://www.w3.org/2000/svg">
<rect width="619" height="481" transform="translate(0 -1)" fill="#FDE037"/>
<path fill-rule="evenodd" clip-rule="evenodd" d="M179.794 151.418C166.189 155.533 152.769 165.112 145.855 175.641C142.509 180.739 120.022 235.331 95.8842 296.956L52 409L70.3776 408.921C103.959 408.778 128.685 391.606 144.913 357.158L153.335 339.281L214.393 338.305L275.451 337.329L299.005 276.63L322.556 215.932H290.737C272.478 215.932 258.915 214.448 258.915 212.449C258.915 210.533 263.751 196.818 269.662 181.966C275.573 167.114 280.409 153.399 280.409 151.482C280.409 147.321 193.519 147.267 179.794 151.418ZM296.659 151.364C295.513 153.216 290.598 165.283 285.733 178.179L276.888 201.63H309.101C326.815 201.63 341.303 202.839 341.292 204.312C341.285 205.785 330 235.653 316.215 270.681C302.434 305.708 291.156 335.069 291.156 335.931C291.156 339.996 321.471 336.839 331.637 331.712C352.598 321.143 358.781 311.879 379.426 260.133L399.914 208.781H422.87C442.448 208.781 449.125 206.94 468.248 196.267C489.957 184.15 491.874 183.753 528.833 183.753C560.373 183.753 567 182.82 567 178.39C567 173.971 560.509 173.027 530.087 173.027H493.174L481.023 160.514L468.871 148H383.808C334.503 148 297.866 149.416 296.659 151.364ZM251.75 213.84C251.75 214.655 246.774 228.331 240.688 244.23L229.629 273.137H204.864C191.247 273.137 180.095 271.929 180.085 270.455C180.074 268.982 185.089 255.303 191.233 240.065L202.403 212.356H227.075C240.648 212.356 251.75 213.025 251.75 213.84Z" fill="#373841"/>
</svg>
